<svg version="1.1" id="Layer_1" xmlns="http://www.w3.org/2000/svg" xmlns:xlink="http://www.w3.org/1999/xlink" x="0px" y="0px"
	 width="100%" viewBox="0 0 192 192" enable-background="new 0 0 192 192" xml:space="preserve">
<path fill="#FEFEFE" opacity="1.000000" stroke="none" 
	d="
M1.000000,12.000000 
	C1.000000,8.337537 1.000000,4.675073 1.000000,1.009457 
	C64.922432,1.006305 128.844864,1.006305 193.000000,1.006305 
	C193.000000,60.354027 193.000000,119.708351 192.603912,179.632507 
	C187.576721,178.483002 182.635056,177.319260 178.374207,174.937546 
	C166.782120,168.457855 158.893570,157.937225 150.669113,147.914001 
	C149.055725,145.947769 147.880280,142.967712 147.863342,140.446106 
	C147.669983,111.628693 147.740265,82.809502 147.740387,53.990788 
	C147.740448,40.216480 148.272781,39.514935 161.030701,36.431156 
	C161.088882,36.417091 161.087173,36.155201 161.186569,35.602020 
	C148.313004,35.602020 135.514511,35.602020 122.291336,35.602020 
	C122.891647,36.350529 123.052841,36.760044 123.269730,36.792046 
	C134.451965,38.441917 136.271713,40.548943 136.272980,51.940956 
	C136.275681,76.428535 136.273773,100.916107 136.273743,125.403687 
	C136.273727,127.138985 136.273727,128.874283 136.273727,131.778778 
	C123.162537,117.221085 110.964066,103.645378 98.730675,90.101212 
	C80.762917,70.208260 62.940727,50.179913 44.726734,30.514696 
	C33.050686,17.908344 19.110447,9.815274 1.000000,12.000000 
z"/>
<path fill="#FEFEFE" opacity="1.000000" stroke="none" 
	d="
M193.000000,185.000000 
	C193.000000,187.663574 193.000000,190.327133 193.000000,192.993042 
	C129.077423,192.995361 65.154854,192.995361 1.000000,192.995361 
	C1.000000,134.312637 1.000000,75.624977 1.366800,16.553268 
	C6.248689,17.786285 11.184266,18.712093 15.197880,21.153553 
	C26.056902,27.759039 33.776718,37.682571 41.185402,47.780613 
	C41.802399,48.621582 41.995247,49.943054 41.996582,51.041756 
	C42.034203,82.026283 42.070492,113.011024 41.973576,143.995316 
	C41.955681,149.716202 38.035866,153.484741 32.266628,154.054703 
	C31.052223,154.174637 29.839378,154.310364 28.625816,154.438812 
	C28.645212,154.713882 28.664606,154.988937 28.684002,155.264008 
	C41.504913,155.264008 54.325821,155.264008 67.146736,155.264008 
	C55.002342,152.430389 53.713932,150.863159 53.713543,138.282791 
	C53.712822,114.961044 53.713379,91.639305 53.713402,68.317558 
	C53.713402,66.576988 53.713398,64.836426 53.713398,63.095856 
	C54.220631,62.795429 54.727859,62.495003 55.235092,62.194576 
	C55.781197,63.172550 56.168346,64.292969 56.897633,65.106789 
	C65.676308,74.902985 74.476532,84.680260 83.327438,94.411247 
	C105.059891,118.304665 126.681282,142.301453 148.628143,165.996552 
	C160.481720,178.794357 175.112854,185.898193 193.000000,185.000000 
z"/>
<path fill="#0A0A0A" opacity="1.000000" stroke="none" 
	d="
M193.000000,184.583344 
	C175.112854,185.898193 160.481720,178.794357 148.628143,165.996552 
	C126.681282,142.301453 105.059891,118.304665 83.327438,94.411247 
	C74.476532,84.680260 65.676308,74.902985 56.897633,65.106789 
	C56.168346,64.292969 55.781197,63.172550 55.235092,62.194576 
	C54.727859,62.495003 54.220631,62.795429 53.713398,63.095856 
	C53.713398,64.836426 53.713402,66.576988 53.713402,68.317558 
	C53.713379,91.639305 53.712822,114.961044 53.713543,138.282791 
	C53.713932,150.863159 55.002342,152.430389 67.146736,155.264008 
	C54.325821,155.264008 41.504913,155.264008 28.684002,155.264008 
	C28.664606,154.988937 28.645212,154.713882 28.625816,154.438812 
	C29.839378,154.310364 31.052223,154.174637 32.266628,154.054703 
	C38.035866,153.484741 41.955681,149.716202 41.973576,143.995316 
	C42.070492,113.011024 42.034203,82.026283 41.996582,51.041756 
	C41.995247,49.943054 41.802399,48.621582 41.185402,47.780613 
	C33.776718,37.682571 26.056902,27.759039 15.197880,21.153553 
	C11.184266,18.712093 6.248689,17.786285 1.366800,16.084610 
	C1.000000,14.933331 1.000000,13.866661 1.000000,12.399996 
	C19.110447,9.815274 33.050686,17.908344 44.726734,30.514696 
	C62.940727,50.179913 80.762917,70.208260 98.730675,90.101212 
	C110.964066,103.645378 123.162537,117.221085 136.273727,131.778778 
	C136.273727,128.874283 136.273727,127.138985 136.273743,125.403687 
	C136.273773,100.916107 136.275681,76.428535 136.272980,51.940956 
	C136.271713,40.548943 134.451965,38.441917 123.269730,36.792046 
	C123.052841,36.760044 122.891647,36.350529 122.291336,35.602020 
	C135.514511,35.602020 148.313004,35.602020 161.186569,35.602020 
	C161.087173,36.155201 161.088882,36.417091 161.030701,36.431156 
	C148.272781,39.514935 147.740448,40.216480 147.740387,53.990788 
	C147.740265,82.809502 147.669983,111.628693 147.863342,140.446106 
	C147.880280,142.967712 149.055725,145.947769 150.669113,147.914001 
	C158.893570,157.937225 166.782120,168.457855 178.374207,174.937546 
	C182.635056,177.319260 187.576721,178.483002 192.603912,180.101166 
	C193.000000,181.388885 193.000000,182.777786 193.000000,184.583344 
z"/>
</svg>